<?xml version="1.0" encoding="UTF-8" standalone="no"?>
<svg
   xmlns:dc="http://purl.org/dc/elements/1.1/"
   xmlns:cc="http://creativecommons.org/ns#"
   xmlns:rdf="http://www.w3.org/1999/02/22-rdf-syntax-ns#"
   xmlns:svg="http://www.w3.org/2000/svg"
   xmlns="http://www.w3.org/2000/svg"
   version="1.1"
   id="Capa_1"
   x="0px"
   y="0px"
   width="48"
   height="48"
   viewBox="0 0 47.999999 47.999999"
   xml:space="preserve"><metadata
     id="metadata47"><rdf:RDF><cc:Work
         rdf:about=""><dc:format>image/svg+xml</dc:format><dc:type
           rdf:resource="http://purl.org/dc/dcmitype/StillImage" /><dc:title></dc:title></cc:Work></rdf:RDF></metadata><defs
     id="defs45" /><g
     id="g13"
     transform="translate(0,-74.578003)" /><g
     id="g15"
     transform="translate(0,-74.578003)" /><g
     id="g17"
     transform="translate(0,-74.578003)" /><g
     id="g19"
     transform="translate(0,-74.578003)" /><g
     id="g21"
     transform="translate(0,-74.578003)" /><g
     id="g23"
     transform="translate(0,-74.578003)" /><g
     id="g25"
     transform="translate(0,-74.578003)" /><g
     id="g27"
     transform="translate(0,-74.578003)" /><g
     id="g29"
     transform="translate(0,-74.578003)" /><g
     id="g31"
     transform="translate(0,-74.578003)" /><g
     id="g33"
     transform="translate(0,-74.578003)" /><g
     id="g35"
     transform="translate(0,-74.578003)" /><g
     id="g37"
     transform="translate(0,-74.578003)" /><g
     id="g39"
     transform="translate(0,-74.578003)" /><g
     id="g41"
     transform="translate(0,-74.578003)" /><g
     id="g4158"><path
       id="path7"
       d="m 11.798669,13.104579 0,15.134585 3.283488,0 0,-17.350596 10.022369,-6.8904283 9.799163,6.8802463 0,21.340513 c 0.836829,-0.692332 1.665826,-1.393671 2.466629,-2.128687 0.276072,-0.253359 0.547444,-0.510242 0.81725,-0.767126 l 0,-16.395898 1.960694,1.341198 L 42.00166,11.558188 26.046693,0.64690746 25.124889,-1.9579177e-7 24.185463,0.64612428 16.813379,5.6921606 l 0,-2.5684427 -4.132456,0 0,5.3980763 -4.3024057,2.9455448 1.8549647,2.709023 1.565187,-1.071783 z"
       style="fill:#fafafa;fill-opacity:1" /><path
       id="path11"
       d="m 47.760783,35.445997 c -0.08811,-1.065518 -0.872072,-1.893732 -2.021782,-2.810054 -0.805111,-0.641034 -2.364033,-1.388972 -4.11131,-1.388972 -1.478254,0 -3.620647,0.535696 -5.440368,3.084559 -1.636849,2.089527 -3.688783,2.936146 -5.35461,3.256076 0.149196,-0.373578 0.246311,-0.821949 0.249443,-1.455151 0.01449,-3.545069 -2.810054,-6.20906 -6.71617,-6.226682 l -13.944149,0.01175 c -1.3086958,0 -2.5966372,0.386108 -3.6825179,1.085097 l 0,-1.814239 -6.50784405,0 0,18.811621 6.50745245,0 0,-1.998679 c 0.2459189,0.121393 0.5846447,0.367312 0.5846447,0.367312 1.1203407,0.61793 2.8566538,1.376833 4.6278178,1.376833 l 12.810103,0 c 11.035023,0 18.653418,-6.182041 21.416089,-9.244279 0.826648,-0.915931 1.68149,-1.863188 1.583201,-3.05519 z m -43.2014488,-2.10245 -2.2747497,0 0,-2.275141 2.2747497,0 0,2.275141 0,0 z m 39.9301008,3.633569 c -2.559828,2.837465 -9.605325,8.4936 -19.727942,8.4936 l -12.810103,0 c -2.1658877,0 -4.4982013,-1.694021 -4.5193472,-1.710468 -0.1997112,-0.147238 -0.4374067,-0.222423 -0.6770601,-0.222423 -0.00509,0 -0.010573,0.0016 -0.016447,0.0016 l 0,-10.023936 c 0.2490516,0.0039 0.49732,-0.06696 0.7029051,-0.223206 l 0.24866,-0.187572 c 0.773783,-0.587778 1.7433613,-0.912015 2.725862,-0.912015 l 13.938667,-0.01214 c 2.223843,0.0094 4.463741,1.287158 4.451994,3.942534 0,1.533469 -1.022443,1.61257 -1.077266,1.625884 l -10.21699,0 c -0.628112,0 -1.137179,0.509459 -1.137179,1.137179 0,0.62772 0.509067,1.136788 1.137179,1.136788 l 10.843926,0 0.604225,-0.0016 c 1.702636,-3.91e-4 5.989378,-0.402555 9.035561,-4.310629 0.0098,-0.01331 0.02075,-0.02702 0.02976,-0.04073 1.012262,-1.426173 2.224234,-2.14905 3.601067,-2.14905 1.2433,0 2.306077,0.585037 2.694143,0.894002 1.139529,0.907707 1.171248,1.205316 1.172031,1.217063 0.0039,0.228298 -0.728359,1.039673 -1.003647,1.345114 z"
       style="fill:#fafafa;fill-opacity:1" /><path
       d="m 19.058464,23.376808 0.894845,-0.129064 3.811699,-10.893025 2.572681,0 3.785886,10.893025 0.894845,0.129064 0,1.50575 -4.267725,0 0,-1.50575 0.869033,-0.154877 -0.550674,-1.720857 -4.061223,0 -0.550675,1.720857 0.869034,0.154877 0,1.50575 -4.267726,0 0,-1.50575 z m 4.543063,-3.725656 2.873831,0 -1.411103,-4.413998 -0.05163,0 -1.411102,4.413998 z"
       style="font-style:normal;font-variant:normal;font-weight:bold;font-stretch:normal;font-size:medium;line-height:125%;font-family:'Roboto Slab';-inkscape-font-specification:'Roboto Slab Bold';text-align:start;letter-spacing:0px;word-spacing:0px;writing-mode:lr-tb;text-anchor:start;fill:#fafafa;fill-opacity:1;stroke:none;stroke-width:1px;stroke-linecap:butt;stroke-linejoin:miter;stroke-opacity:1"
       id="path3387" /></g></svg>